<svg id="SvgjsSvg1013" width="288" height="288" xmlns="http://www.w3.org/2000/svg" version="1.1" xmlns:xlink="http://www.w3.org/1999/xlink" xmlns:svgjs="http://svgjs.com/svgjs"><defs id="SvgjsDefs1014"></defs><g id="SvgjsG1015"><svg xmlns="http://www.w3.org/2000/svg" enable-background="new 0 0 128 128" viewBox="0 0 128 128" width="288" height="288"><path d="M75.6,102c-3.7,0.8-7.7,1.4-12,2.1c-3.1,0.5-6.4,1-9.9,1.6c-6.6,1.2-14.4,7-17.5,9.5c-10.7-4.5-20.3-18.5-23.3-27.1		L23,86.3c1.6-0.3,2.7-1.8,2.4-3.5s-1.8-2.7-3.5-2.4L8.7,82.8C7,83,5.9,84.6,6.2,86.2c1.7,9.5,14.2,30.1,29.7,35.2
		c0.3,0.1,0.6,0.2,0.9,0.2c0.7,0,1.4-0.3,2-0.7c2.6-2.2,10.4-8.3,16-9.2c3.4-0.6,6.6-1.1,9.7-1.6c4.4-0.7,8.5-1.3,12.3-2.1
		c1.6-0.4,2.7-1.9,2.3-3.6C78.8,102.7,77.2,101.7,75.6,102z" fill="#366b55" class="color000 svgShape"></path><path d="M44.7 90.9c.5.3 1 .4 1.5.4 1 0 2-.5 2.6-1.5.8-1.4.4-3.3-1.1-4.1-3.6-2.1-6.9-4.4-9.9-6.8-1.3-1-3.2-.8-4.2.5-1 1.3-.8 3.2.5 4.2C37.3 86.2 40.9 88.7 44.7 90.9zM82 53.5c0-.1.1-.1.1-.2 5.2-10.2 11.2-15.8 17.7-16.6 6.2-.8 11.7 2.8 14.8 5.3-3.6 3.7-4.7 9.8-5.9 16.6-1.1 6-2.3 12.8-5.3 19.9-.6 1.5.1 3.3 1.6 3.9.4.2.8.2 1.2.2 1.2 0 2.3-.7 2.8-1.9 3.3-7.7 4.6-15.2 5.7-21.2 1.5-8.3 2.5-13 6-14.7.9-.4 1.5-1.2 1.7-2.1.2-.9-.1-1.9-.7-2.6-.4-.5-10-11.1-22.4-9.5-8.5 1.1-15.9 7.6-22 19.2-9-6-21.2-11.7-36.3-17-15.2-5.3-27.5-8.1-28-8.2-.8-.2-1.6 0-2.3.4s-1.1 1.2-1.3 2c-.2.9-3.8 22 11.8 43.1.6.8 1.5 1.2 2.4 1.2.6 0 1.2-.2 1.8-.6 1.3-1 1.6-2.9.6-4.2-10.7-14.4-11.4-29-11.1-35.2C26.2 34.3 64.1 44.8 81.7 61c1.2 1.1 3.1 1 4.2-.2 1.1-1.2 1-3.1-.2-4.2C84.6 55.6 83.3 54.5 82 53.5z" fill="#366b55" class="color000 svgShape"></path><path d="M33.2 24.7c1.6.4 3.2-.7 3.6-2.3.1-.7.3-1.2.4-1.7 6.8 2.8 24.1 10.3 34.9 17.4.5.3 1.1.5 1.6.5 1 0 2-.5 2.5-1.4.9-1.4.5-3.2-.9-4.1C61.2 23.8 37.5 14.4 36.5 14c-.5-.2-1-.3-1.5-.2-2.3.3-3.1 2.4-4.1 7.3C30.5 22.7 31.6 24.3 33.2 24.7zM123.9 91.1c-4.1-4.1-10.7-4.1-14.8 0l-2.2 2.2-2.2-2.2c-4.1-4.1-10.7-4.1-14.8 0-3.2 3.2-3.9 8-2.1 11.9.5 1.1 1.2 2 2.1 2.9l15.5 15.5c.8.8 2 .8 2.8 0l15.5-15.6c.8-.8 1.5-1.8 2-2.8C127.8 99.2 127.2 94.3 123.9 91.1z" fill="#366b55" class="color000 svgShape"></path></svg></g></svg>