<svg xmlns="http://www.w3.org/2000/svg" viewBox="0 0 16 16" id="user"><path fill="#231f20" d="M12.266 1a3.23 3.23 0 0 0-2.55 1.258 6.776 6.776 0 0 0-1.952-.29C4.034 1.969 1 5.002 1 8.73c0 1.807.703 3.506 1.98 4.784a6.725 6.725 0 0 0 4.784 1.978c3.729 0 6.763-3.033 6.763-6.762 0-.654-.108-1.294-.29-1.914a3.233 3.233 0 0 0 1.279-2.566A3.254 3.254 0 0 0 12.266 1zm0 .5a2.752 2.752 0 0 1 2.75 2.75A2.752 2.752 0 0 1 12.266 7a2.752 2.752 0 0 1-2.75-2.75 2.752 2.752 0 0 1 2.75-2.75zm-4.502.967c.565 0 1.122.086 1.662.234-.252.462-.41.986-.41 1.549a3.254 3.254 0 0 0 3.25 3.25c.555 0 1.068-.153 1.525-.398.143.53.234 1.072.234 1.628a6.24 6.24 0 0 1-1.87 4.457 5.594 5.594 0 0 0-3.116-2.05 2.749 2.749 0 0 0 1.428-2.412 2.747 2.747 0 0 0-2.762-2.739 2.747 2.747 0 0 0-2.738 2.762c0 1.03.579 1.92 1.422 2.387a5.599 5.599 0 0 0-3.08 1.994A6.221 6.221 0 0 1 1.5 8.73a6.27 6.27 0 0 1 6.264-6.263Zm4.23.283v1.246H10.77v.5h1.224v1.246h.5V4.496h1.268v-.5h-1.268V2.75h-.5zM7.73 6.486a2.246 2.246 0 0 1 2.238 2.262c0 1.212-.97 2.197-2.174 2.232-.028 0-.057-.005-.086-.005-.025 0-.047.002-.072.003a2.243 2.243 0 0 1-2.168-2.253 2.246 2.246 0 0 1 2.262-2.239zm-.094 4.993c.024 0 .046.007.07.007h.024c.022 0 .04-.006.062-.007a5.09 5.09 0 0 1 3.992 2.046 6.226 6.226 0 0 1-4.02 1.467 6.212 6.212 0 0 1-4.087-1.525 5.102 5.102 0 0 1 3.959-1.988z"></path></svg>